<?xml version="1.0" encoding="utf-8"?>
<!-- Generator: Adobe Illustrator 24.2.0, SVG Export Plug-In . SVG Version: 6.00 Build 0)  -->
<svg version="1.1" id="图层_1" xmlns="http://www.w3.org/2000/svg" xmlns:xlink="http://www.w3.org/1999/xlink" x="0px" y="0px"
	 viewBox="0 0 841.89 792" style="enable-background:new 0 0 841.89 792;" xml:space="preserve">
<style type="text/css">
	.st0{fill:#FFF1DC;}
	.st1{clip-path:url(#SVGID_2_);fill:#E3FFF3;}
	.st2{fill:#1DCE75;}
	.st3{fill:#48E1AA;}
	.st4{fill:#05C46D;}
	.st5{fill:#3CD38E;}
	.st6{clip-path:url(#SVGID_4_);fill:#FFF1DC;}
	.st7{fill:#FF8E12;}
	.st8{fill:#FCA315;}
	.st9{fill:#FCB138;}
	.st10{fill:#FFC65E;}
	.st11{fill:#F4F0EF;}
	.st12{fill:#FC7032;}
	.st13{fill:none;}
</style>
<path class="st0" d="M670.29,762.03h-507.3c-59.09,0-107-47.91-107-107v-507.3c0-59.09,47.91-107,107-107h507.3
	c59.09,0,107,47.91,107,107v507.3C777.29,714.13,729.39,762.03,670.29,762.03z"/>
<g>
	<path class="st11" d="M332.61,415.78c-29.49,39.11-57.84,76.71-87.73,116.37H596.6c-38.42-52.18-75.2-102.24-112.97-153.52
		c-30.11,38.54-58.78,75.24-88.02,112.72C374.02,465.46,354.04,441.42,332.61,415.78L332.61,415.78z"/>
	<path class="st0" d="M55.68,401.21c0,128.85,68.74,247.91,180.33,312.34c111.59,64.42,249.07,64.42,360.65,0
		c111.59-64.43,180.33-183.49,180.33-312.34c0-199.18-161.47-360.65-360.65-360.65C217.15,40.55,55.68,202.02,55.68,401.21
		L55.68,401.21z M55.68,401.21"/>
	<rect x="55.68" y="39.94" class="st13" width="721.92" height="722.88"/>
	<path class="st7" d="M659.68,334.89c0-90.4-70-163.68-156.3-163.68c-19.09,0-37.36,3.6-54.27,10.16
		c42.96,36.05,70.49,91.42,70.49,153.56c0,62.14-27.53,117.47-70.49,153.56c5.9,2.29,11.96,4.18,18.18,5.73l-21.09,24.86
		c-5.32,6.96-1.6,19.01,5.9,19.01h32.85v15.07c0,21.05,16.96,44.03,23.47,51.12c2.54,2.79,4.22,5,5.29,6.92
		c-11.4,1.89-19.83,11.63-20.07,23.18c-0.15,6.38,2.25,12.55,6.66,17.16c4.41,4.61,10.47,7.28,16.85,7.41h0.65
		c9.47,0,23.88-4.38,33.96-14.21c7.58-7.41,11.71-17.08,11.71-27.28c0-21.87-11.26-36.58-19.7-45.75
		c-4.79-5.2-10.12-15.07-10.73-18.84v-14.75h30.15c7.49,0,11.22-12,5.9-19l-22.61-26.83C611.79,472.64,659.68,409.64,659.68,334.89
		L659.68,334.89z M659.68,334.89"/>
	<path class="st7" d="M488.01,334.89c0-90.4-70-163.68-156.3-163.68c-86.3,0-156.3,73.28-156.3,163.68
		c0,77.37,51.32,142.21,120.22,159.25l-21.1,24.91c-5.32,6.96-1.6,19,5.9,19h32.85v15.08c0,21.05,16.96,44.03,23.47,51.12
		c2.54,2.78,4.22,5,5.29,6.92c-11.4,1.89-19.83,11.63-20.07,23.18c-0.14,6.38,2.25,12.55,6.66,17.16
		c4.41,4.61,10.47,7.28,16.85,7.41h0.66c9.46,0,23.88-4.38,33.95-14.21c7.58-7.42,11.71-17.08,11.71-27.28
		c0-21.87-11.26-36.57-19.7-45.75c-4.79-5.2-10.11-15.07-10.73-18.84V538.1h30.15c7.5,0,11.22-12,5.9-19.01l-22.61-26.83
		C440.17,472.64,488.01,409.64,488.01,334.89L488.01,334.89z M276.95,289.06c-0.82,0.86-19.7,21.5-6.02,65.86
		c2.24,7.29,0.89,15.22-3.64,21.36c-4.53,6.14-11.71,9.76-19.34,9.77c-10.28,0-19.78-6.63-22.98-16.96
		c-21.02-68.2,10.52-106.13,17.04-113.05c9.13-9.64,24.34-10.06,34-0.95c4.64,4.38,7.34,10.41,7.52,16.79
		C283.7,278.26,281.33,284.44,276.95,289.06L276.95,289.06z M276.95,289.06"/>
	<path class="st8" d="M331.71,171.17c-86.34,0-156.3,73.28-156.3,163.68c0,77.37,51.32,142.21,120.22,159.25l-21.1,24.9
		c-5.32,6.96-1.6,19.01,5.9,19.01h32.85v15.07c0,15.81,9.54,32.69,17.08,43.13c16.67-4.1,33.03-9.4,48.95-15.85
		c-2.42-3.36-4.96-6.27-7.25-8.77c-4.79-5.2-10.12-15.07-10.73-18.84v-14.74h30.14c7.5,0,11.22-12,5.9-19.01l-22.61-26.83
		c65.37-19.58,113.25-82.57,113.25-157.33C488.01,244.5,418.05,171.17,331.71,171.17L331.71,171.17z M276.95,289.06
		c-0.82,0.86-19.7,21.5-6.02,65.86c2.24,7.29,0.89,15.22-3.64,21.36c-4.53,6.14-11.71,9.76-19.34,9.77
		c-10.28,0-19.78-6.63-22.98-16.96c-21.02-68.2,10.52-106.13,17.04-113.05c9.13-9.64,24.34-10.06,34-0.95
		c4.64,4.38,7.34,10.41,7.52,16.79C283.7,278.26,281.33,284.44,276.95,289.06L276.95,289.06z M276.95,289.06"/>
	<path class="st8" d="M449.1,181.34c42.96,36.04,70.49,91.42,70.49,153.56c0,62.14-27.53,117.47-70.49,153.56
		c5.9,2.29,11.96,4.18,18.18,5.73l-21.09,24.86c-5.32,6.96-1.6,19,5.9,19h3.48c90.24-65.54,148.93-171.91,148.93-291.96
		c0-12.74-0.66-25.32-1.97-37.73c-26.99-23.22-61.52-37.15-99.16-37.15C484.28,171.17,466.02,174.78,449.1,181.34L449.1,181.34z
		 M449.1,181.34"/>
	<path class="st9" d="M331.71,171.17c-86.34,0-156.3,73.28-156.3,163.68c0,53.9,24.9,101.66,63.32,131.48
		c104.94-28.1,191-102.32,235.11-199.64C449.14,210.37,394.79,171.17,331.71,171.17L331.71,171.17z M276.95,289.06
		c-0.82,0.86-19.7,21.5-6.02,65.86c2.24,7.29,0.89,15.22-3.64,21.36c-4.53,6.14-11.71,9.76-19.34,9.77
		c-10.28,0-19.78-6.63-22.98-16.96c-21.02-68.2,10.52-106.13,17.04-113.05c9.13-9.64,24.34-10.06,34-0.95
		c4.64,4.38,7.34,10.41,7.52,16.79C283.7,278.26,281.33,284.44,276.95,289.06L276.95,289.06z M449.1,181.34
		c15.48,12.98,28.92,28.55,39.85,46c5.78-18.11,10.12-36.86,12.98-56.07C483.34,171.42,465.57,174.94,449.1,181.34L449.1,181.34z
		 M449.1,181.34"/>
	<path class="st10" d="M175.49,330.18c14.83-5.29,29.2-11.47,43.05-18.55c3.49-32.32,19.09-50.91,23.47-55.54
		c9.13-9.64,24.34-10.06,34-0.94c4.09,3.89,6.43,8.89,7.17,14.13c32.32-26.54,59.8-58.48,81.22-94.41
		c-10.57-2.34-21.5-3.6-32.73-3.6C246.88,171.17,177.91,241.95,175.49,330.18L175.49,330.18z M175.49,330.18"/>
</g>
</svg>
